<?xml version="1.0" encoding="UTF-8"?>
<svg version="1.1" xmlns="http://www.w3.org/2000/svg" width="512" height="512">
<path d="M0 0 C168.96 0 337.92 0 512 0 C512 168.96 512 337.92 512 512 C343.04 512 174.08 512 0 512 C0 343.04 0 174.08 0 0 Z " fill="#FEF1EB" transform="translate(0,0)"/>
<path d="M0 0 C3.66063477 2.7345669 6.84458398 5.70244812 10 9 C10.70511719 9.68578125 11.41023437 10.3715625 12.13671875 11.078125 C26.16050047 25.5025862 29.38801344 45.55093999 32.27905273 64.62890625 C35.10664665 83.09154925 40.43256111 97.92874956 51.5 113.25 C54.90397413 118.08538889 57.57141774 122.89528388 59.9375 128.3125 C60.21980469 128.95799805 60.50210938 129.60349609 60.79296875 130.26855469 C66.69902668 144.40400951 67.75595461 162.64900507 62 177 C57.29817352 187.7173986 51.26266165 195.78587087 43 204 C42.29746094 204.73863281 41.59492188 205.47726562 40.87109375 206.23828125 C36.78754988 210.48681679 32.40692639 214.16664875 27.77734375 217.8046875 C12.38179954 229.97387997 -1.21329547 242.13195253 -5.6875 262.0625 C-6.76027833 272.14661634 -5.23946745 281.98421571 0.8125 290.4375 C3.82307945 294.06405479 7.29236535 297.10409602 11 300 C3.55298092 302.83431323 -8.04541651 297.15104903 -15.0625 294.3125 C-27.76720416 288.58320838 -38.18001893 280.80601239 -48 271 C-48.81339844 270.19820313 -49.62679687 269.39640625 -50.46484375 268.5703125 C-66.60452693 251.74089927 -71.47330595 231.40026559 -71.2109375 208.6640625 C-70.90377765 197.07920639 -67.75702118 185.62617979 -59.25 177.3125 C-49.38088242 173.32689482 -38.82866484 177.68651333 -29.1640625 180.51171875 C-20.67716197 182.87454901 -11.67929352 185.17829181 -3.375 181.3125 C0.86163154 177.18735876 1.18502665 173.24301 1.3125 167.5 C1.7455516 160.41880437 1.7455516 160.41880437 4.4375 157.6875 C7 156 7 156 9 156 C9.0270043 154.54176788 9.04639787 153.08339325 9.0625 151.625 C9.07990234 150.40683594 9.07990234 150.40683594 9.09765625 149.1640625 C9.14466334 146.95062858 9.14466334 146.95062858 8 145 C8.99 144.46375 9.98 143.9275 11 143.375 C14.27089302 141.31693075 14.27089302 141.31693075 14.5625 138.0625 C13.95607673 134.7608622 12.71939454 132.8407388 11 130 C11.14453125 128.0390625 11.14453125 128.0390625 12 126 C13.890625 124.4375 13.890625 124.4375 16.25 123 C17.05695313 122.48308594 17.86390625 121.96617187 18.6953125 121.43359375 C20.50425877 120.30836785 22.31440405 119.18506949 24.125 118.0625 C26.32158033 116.05978242 26.32158033 116.05978242 26.3125 112.75 C24.7479959 108.27998829 22.68652017 106.52499875 19.26953125 103.37890625 C11.99298857 95.75168681 6.66974542 86.19405037 6.91015625 75.6015625 C6.93061607 74.1367226 6.95078852 72.67187866 6.97070312 71.20703125 C7.01369172 68.93227903 7.06171052 66.65780074 7.11645508 64.38330078 C7.42549788 50.52052387 5.83421623 38.12144406 1 25 C0.01247551 27.93225473 -0.95862119 30.86401417 -1.859375 33.82421875 C-9.99440199 59.97761692 -28.88352099 74.03888393 -51.5 87.20703125 C-61.44258948 93.00249873 -71.07484081 98.69361968 -80 106 C-80.70640625 106.53238281 -81.4128125 107.06476563 -82.140625 107.61328125 C-96.03218503 118.63355426 -104.62615695 136.72193941 -107 154 C-108.99609153 176.89832154 -104.78400193 199.73064321 -92.1015625 219.14453125 C-91 221 -91 221 -91 223 C-102.04130382 219.07555868 -111.2610624 210.42266082 -119.55908203 202.38525391 C-120.95607362 201.04222946 -122.38198826 199.72949341 -123.80859375 198.41796875 C-144.09601842 179.22405066 -157.26813616 151.34643377 -158.203125 123.328125 C-158.82338064 83.17348573 -144.54988487 46.39101459 -116.75 17.3125 C-85.86656698 -12.43358279 -37.8876203 -23.74388584 0 0 Z " fill="#B8564D" transform="translate(309,103)"/>
</svg>