<?xml version="1.0" encoding="UTF-8"?>
<svg width="512" height="512" viewBox="0 0 512 512" fill="none" xmlns="http://www.w3.org/2000/svg">
    <path d="M256 64C150 64 64 150 64 256C64 362 150 448 256 448C362 448 448 362 448 256C448 150 362 64 256 64ZM256 400C176.7 400 112 335.3 112 256C112 176.7 176.7 112 256 112C335.3 112 400 176.7 400 256C400 335.3 335.3 400 256 400Z" fill="#b5715f"/>
    <path d="M256 128C185.3 128 128 185.3 128 256C128 326.7 185.3 384 256 384C326.7 384 384 326.7 384 256C384 185.3 326.7 128 256 128ZM256 336C211.8 336 176 300.2 176 256C176 211.8 211.8 176 256 176C300.2 176 336 211.8 336 256C336 300.2 300.2 336 256 336Z" fill="#b5715f"/>
</svg> 