<?xml version="1.0" encoding="UTF-8"?>
<svg width="200" height="200" viewBox="0 0 200 200" fill="none" xmlns="http://www.w3.org/2000/svg">
  <path d="M100 20C55.8172 20 20 55.8172 20 100C20 144.183 55.8172 180 100 180C144.183 180 180 144.183 180 100C180 55.8172 144.183 20 100 20ZM100 160C66.8629 160 40 133.137 40 100C40 66.8629 66.8629 40 100 40C133.137 40 160 66.8629 160 100C160 133.137 133.137 160 100 160Z" fill="#b5715f" fill-opacity="0.03"/>
  
  <path d="M100 50C73.4903 50 52 71.4903 52 98C52 124.51 73.4903 146 100 146C126.51 146 148 124.51 148 98C148 71.4903 126.51 50 100 50ZM100 126C84.536 126 72 113.464 72 98C72 82.536 84.536 70 100 70C115.464 70 128 82.536 128 98C128 113.464 115.464 126 100 126Z" fill="#f8e9e4" fill-opacity="0.05"/>
  
  <path d="M160 20C160 31.0457 151.046 40 140 40C128.954 40 120 31.0457 120 20C120 8.95431 128.954 0 140 0C151.046 0 160 8.95431 160 20Z" fill="#b5715f" fill-opacity="0.02"/>
  
  <path d="M80 180C80 191.046 71.0457 200 60 200C48.9543 200 40 191.046 40 180C40 168.954 48.9543 160 60 160C71.0457 160 80 168.954 80 180Z" fill="#f8e9e4" fill-opacity="0.03"/>
  
  <path d="M180 140C180 151.046 171.046 160 160 160C148.954 160 140 151.046 140 140C140 128.954 148.954 120 160 120C171.046 120 180 128.954 180 140Z" fill="#b5715f" fill-opacity="0.04"/>
</svg>