<svg width="100" height="100" viewBox="0 0 100 100" fill="none" xmlns="http://www.w3.org/2000/svg">
  <path d="M0 50C0 22.3858 22.3858 0 50 0C77.6142 0 100 22.3858 100 50C100 77.6142 77.6142 100 50 100C22.3858 100 0 77.6142 0 50ZM80 50C80 33.4315 66.5685 20 50 20C33.4315 20 20 33.4315 20 50C20 66.5685 33.4315 80 50 80C66.5685 80 80 66.5685 80 50Z" fill="#b5715f" fill-opacity="0.02"/>
  
  <path d="M40 0C40 22.0914 22.0914 40 0 40" stroke="#f8e9e4" stroke-opacity="0.03" stroke-width="0.5"/>
  <path d="M60 100C60 77.9086 77.9086 60 100 60" stroke="#f8e9e4" stroke-opacity="0.03" stroke-width="0.5"/>
  
  <path d="M90 20C90 31.0457 81.0457 40 70 40C58.9543 40 50 31.0457 50 20C50 8.95431 58.9543 0 70 0C81.0457 0 90 8.95431 90 20Z" fill="#b5715f" fill-opacity="0.015"/>
  
  <path d="M50 80C50 91.0457 41.0457 100 30 100C18.9543 100 10 91.0457 10 80C10 68.9543 18.9543 60 30 60C41.0457 60 50 68.9543 50 80Z" fill="#f8e9e4" fill-opacity="0.02"/>
  
  <circle cx="85" cy="85" r="15" fill="#b5715f" fill-opacity="0.01"/>
  <circle cx="15" cy="15" r="15" fill="#f8e9e4" fill-opacity="0.01"/>
</svg> 